<svg width="26" height="17" viewBox="0 0 26 17" fill="none" xmlns="http://www.w3.org/2000/svg">
<path d="M16.4353 12.6816C17.149 12.6816 17.8557 12.541 18.5151 12.2679C19.1745 11.9948 19.7736 11.5945 20.2783 11.0898C20.7829 10.5851 21.1833 9.98602 21.4564 9.32664C21.7295 8.66726 21.8701 7.96055 21.8701 7.24684C21.8701 6.53313 21.7295 5.82642 21.4564 5.16704C21.1833 4.50766 20.7829 3.90854 20.2783 3.40387C19.7736 2.8992 19.1745 2.49888 18.5151 2.22576C17.8557 1.95263 17.149 1.81206 16.4353 1.81206C14.9939 1.81206 13.6116 2.38465 12.5923 3.40387C11.5731 4.42309 11.0005 5.80545 11.0005 7.24684C11.0005 8.68823 11.5731 10.0706 12.5923 11.0898C13.6116 12.109 14.9939 12.6816 16.4353 12.6816ZM22.1599 11.6907L25.4027 14.9334C25.4892 15.0171 25.5581 15.1171 25.6055 15.2276C25.6529 15.3381 25.6778 15.457 25.6787 15.5773C25.6797 15.6976 25.6567 15.8168 25.6111 15.9281C25.5654 16.0394 25.4981 16.1405 25.413 16.2255C25.3279 16.3104 25.2267 16.3776 25.1154 16.4231C25.004 16.4686 24.8847 16.4914 24.7645 16.4903C24.6442 16.4891 24.5253 16.4641 24.4149 16.4165C24.3044 16.369 24.2045 16.2999 24.121 16.2133L20.8782 12.9706C19.4221 14.1009 17.59 14.6338 15.7548 14.4608C13.9197 14.2878 12.2194 13.4219 11.0001 12.0395C9.78087 10.657 9.1343 8.86183 9.19204 7.01942C9.24977 5.177 10.0075 3.42585 11.3109 2.12243C12.6143 0.819005 14.3655 0.061303 16.2079 0.00356652C18.0503 -0.05417 19.8455 0.592399 21.2279 1.81165C22.6104 3.0309 23.4763 4.73118 23.6493 6.56636C23.8222 8.40155 23.2893 10.2337 22.159 11.6898L22.1599 11.6907Z" fill="#181725"/>
<rect width="8.02083" height="2.17321" rx="1.08661" fill="#181725"/>
<rect y="6.73751" width="5.8552" height="2.17321" rx="1.08661" fill="#181725"/>
<rect y="13.4753" width="8.02083" height="2.17321" rx="1.08661" fill="#181725"/>
</svg>
