<svg width="141" height="20" viewBox="0 0 141 20" fill="none" xmlns="http://www.w3.org/2000/svg">
<path d="M9.7392 9.33042e-06C11.7682 9.33042e-06 13.5943 0.376821 15.2175 1.13044L14.3769 4.66668L14.0001 4.72465C13.0532 4.18358 12.203 3.79711 11.4493 3.56523C10.715 3.31402 9.92278 3.18841 9.07253 3.18841C7.35273 3.18841 6.09669 3.70049 5.30442 4.72465C4.51215 5.7488 4.11601 7.42996 4.11601 9.76812C4.11601 11.314 4.28026 12.5411 4.60877 13.4493C4.95659 14.3575 5.48799 15.0242 6.20297 15.4493C6.91795 15.8551 7.86481 16.058 9.04355 16.058C9.44935 16.058 9.82616 16.029 10.174 15.971C10.5411 15.9131 10.9856 15.8068 11.5073 15.6522L11.5653 14.058L11.5073 11.1015L15.1305 10.8406L15.0435 13.4493L15.1305 18C12.8117 18.773 10.6764 19.1594 8.72471 19.1594C5.82616 19.1594 3.64258 18.3672 2.17398 16.7826C0.724708 15.1981 7.07572e-05 12.9275 7.07572e-05 9.97102C7.07572e-05 6.74397 0.84065 4.2802 2.52181 2.57972C4.22229 0.859913 6.62809 9.33042e-06 9.7392 9.33042e-06ZM27.3524 13.1304C28.6471 15.0048 29.8548 16.6474 30.9756 18.058L30.9466 18.4638C29.7486 18.8309 28.5698 19.0531 27.4104 19.1304L26.8887 18.7826C25.8065 16.9082 24.966 15.372 24.3669 14.1739H22.135V14.2029L22.28 18.8986H18.6278L18.7727 14.5507L18.6278 4.26088L24.9466 4.23189C26.5891 4.23189 27.8548 4.61837 28.7437 5.39131C29.6519 6.14494 30.106 7.22706 30.106 8.63769C30.106 9.5459 29.8645 10.3961 29.3814 11.1884C28.8983 11.9614 28.222 12.6087 27.3524 13.1304ZM22.193 11.3913L24.3669 11.5073C25.0239 11.2947 25.507 10.9855 25.8162 10.5797C26.1254 10.1739 26.28 9.65218 26.28 9.0145C26.28 8.31885 26.0771 7.80677 25.6713 7.47827C25.2655 7.13044 24.6278 6.93721 23.7582 6.89856L22.28 6.95653L22.193 11.3913ZM43.8862 15.942L44.118 16.1739L43.8572 18.8986H33.8282L33.9731 14.5507L33.8282 4.26088H44.0021L44.205 4.55073L43.9731 7.24639L40.205 7.10146H37.4804L37.4224 10.058L40.0311 10.087L42.5528 10L42.7557 10.2609L42.5238 13.0145L39.7702 12.9275H37.3644L37.3354 14.2029L37.3934 16.058H39.9441L43.8862 15.942ZM57.1051 15.942L57.337 16.1739L57.0762 18.8986H47.0472L47.1921 14.5507L47.0472 4.26088H57.2211L57.424 4.55073L57.1921 7.24639L53.424 7.10146H50.6993L50.6414 10.058L53.2501 10.087L55.7718 10L55.9747 10.2609L55.7428 13.0145L52.9892 12.9275H50.5834L50.5544 14.2029L50.6124 16.058H53.1631L57.1051 15.942ZM73.3676 14.2609L73.5125 18.8986H69.5415L63.6864 9.8261H63.4835L63.4546 13.7681L63.5705 18.8986H60.2661L60.4111 14.6087L60.2661 4.26088H64.2082L70.0632 13.3333H70.3241L70.2082 4.40581L73.5705 4.17392L73.3676 14.2609ZM97.3536 18.8986H93.8753L93.5854 13.2464L92.9188 6.05798H92.6289L88.455 16.9275H85.4115L81.6144 6.05798H81.3536L80.6289 12.8696L80.2231 18.8986H76.9188L78.8028 0.231892H83.3246L84.0782 2.98552L87.0347 11.8261H87.2956L90.397 2.98552L91.2376 0.231892H95.6724L97.3536 18.8986ZM113.35 18.8986H109.669L109.263 16.7826L109.002 15.942L106.046 15.9131L103.437 15.971L103.234 16.5797L102.799 18.8986H99.234L104.364 4.26088H108.683L113.35 18.8986ZM108.219 13.1884L106.567 7.59421H106.335L104.393 13.1884L106.277 13.2174L108.219 13.1884ZM124.924 13.1304C126.218 15.0048 127.426 16.6474 128.547 18.058L128.518 18.4638C127.32 18.8309 126.141 19.0531 124.982 19.1304L124.46 18.7826C123.378 16.9082 122.537 15.372 121.938 14.1739H119.706V14.2029L119.851 18.8986H116.199L116.344 14.5507L116.199 4.26088L122.518 4.23189C124.16 4.23189 125.426 4.61837 126.315 5.39131C127.223 6.14494 127.677 7.22706 127.677 8.63769C127.677 9.5459 127.436 10.3961 126.953 11.1884C126.47 11.9614 125.793 12.6087 124.924 13.1304ZM119.764 11.3913L121.938 11.5073C122.595 11.2947 123.078 10.9855 123.388 10.5797C123.697 10.1739 123.851 9.65218 123.851 9.0145C123.851 8.31885 123.648 7.80677 123.243 7.47827C122.837 7.13044 122.199 6.93721 121.33 6.89856L119.851 6.95653L119.764 11.3913ZM140.808 4.55073L140.606 7.33334L137.649 7.13044H136.808L136.722 14.2029L136.837 18.8986H133.214L133.359 14.5507L133.301 7.13044H132.461L129.446 7.33334L129.214 7.04349L129.417 4.26088H140.606L140.808 4.55073Z" fill="#53B175"/>
</svg>
