<svg width="22" height="22" viewBox="0 0 22 22" fill="none" xmlns="http://www.w3.org/2000/svg">
<path d="M7.27336 10.933C7.40092 10.8855 7.5381 10.8607 7.67679 10.8603C7.81547 10.8599 7.95285 10.8837 8.0808 10.9304C8.20876 10.9771 8.32468 11.0458 8.42173 11.1323C8.51878 11.2188 8.59498 11.3214 8.64583 11.434C8.69668 11.5466 8.72114 11.667 8.71777 11.7881C8.71441 11.9091 8.68328 12.0284 8.62623 12.1387C8.56918 12.2491 8.48736 12.3483 8.38562 12.4306C8.28388 12.5129 8.16428 12.5765 8.03388 12.6178C7.34033 12.8563 6.74507 13.2716 6.32557 13.8096C5.90607 14.3475 5.68174 14.9833 5.68177 15.6341V17.2101C5.68177 17.4504 5.79108 17.6808 5.98566 17.8506C6.18024 18.0205 6.44414 18.1159 6.71931 18.1159H15.0196C15.2948 18.1159 15.5587 18.0205 15.7533 17.8506C15.9479 17.6808 16.0572 17.4504 16.0572 17.2101V15.7183C16.0573 15.0466 15.8236 14.3908 15.387 13.8377C14.9505 13.2846 14.3317 12.8604 13.6127 12.6214C13.4815 12.5816 13.3608 12.5193 13.2577 12.438C13.1546 12.3568 13.0712 12.2583 13.0125 12.1484C12.9539 12.0385 12.921 11.9195 12.916 11.7983C12.911 11.6771 12.9339 11.5563 12.9834 11.443C13.0328 11.3297 13.1079 11.2263 13.204 11.1387C13.3001 11.0512 13.4154 10.9814 13.543 10.9335C13.6705 10.8856 13.8078 10.8606 13.9467 10.8599C14.0856 10.8591 14.2232 10.8828 14.3515 10.9293C15.4633 11.2991 16.4202 11.955 17.0954 12.8102C17.7706 13.6655 18.1322 14.6796 18.1323 15.7183V17.2101C18.1323 17.9308 17.8043 18.622 17.2206 19.1316C16.6369 19.6412 15.8452 19.9275 15.0196 19.9275H6.71931C5.89379 19.9275 5.10209 19.6412 4.51836 19.1316C3.93463 18.622 3.60669 17.9308 3.60669 17.2101L3.60669 15.6341C3.60683 14.6197 3.95663 13.6289 4.61057 12.7904C5.26452 11.952 6.19235 11.3048 7.27336 10.933ZM10.8695 1.8116C11.9702 1.8116 13.0258 2.19332 13.8041 2.8728C14.5824 3.55228 15.0196 4.47386 15.0196 5.43478V7.24638C15.0196 8.20731 14.5824 9.12888 13.8041 9.80836C13.0258 10.4878 11.9702 10.8696 10.8695 10.8696C9.76879 10.8696 8.71318 10.4878 7.93487 9.80836C7.15656 9.12888 6.71931 8.20731 6.71931 7.24638V5.43478C6.71931 4.47386 7.15656 3.55228 7.93487 2.8728C8.71318 2.19332 9.76879 1.8116 10.8695 1.8116ZM10.8695 3.62319C10.3191 3.62319 9.79133 3.81405 9.40217 4.15379C9.01302 4.49353 8.7944 4.95432 8.7944 5.43478V7.24638C8.7944 7.72684 9.01302 8.18763 9.40217 8.52737C9.79133 8.86711 10.3191 9.05797 10.8695 9.05797C11.4198 9.05797 11.9476 8.86711 12.3368 8.52737C12.7259 8.18763 12.9446 7.72684 12.9446 7.24638V5.43478C12.9446 4.95432 12.7259 4.49353 12.3368 4.15379C11.9476 3.81405 11.4198 3.62319 10.8695 3.62319Z" fill="#181725"/>
</svg>
